<?xml version="1.0" encoding="UTF-8" standalone="no"?>
<!-- Generator: Adobe Illustrator 18.0.0, SVG Export Plug-In . SVG Version: 6.00 Build 0)  -->

<svg
   xmlns:dc="http://purl.org/dc/elements/1.1/"
   xmlns:cc="http://creativecommons.org/ns#"
   xmlns:rdf="http://www.w3.org/1999/02/22-rdf-syntax-ns#"
   xmlns:svg="http://www.w3.org/2000/svg"
   xmlns="http://www.w3.org/2000/svg"
   xmlns:sodipodi="http://sodipodi.sourceforge.net/DTD/sodipodi-0.dtd"
   xmlns:inkscape="http://www.inkscape.org/namespaces/inkscape"
   version="1.1"
   id="Capa_1"
   x="0px"
   y="0px"
   viewBox="0 0 455.731 455.731"
   style="enable-background:new 0 0 455.731 455.731;"
   xml:space="preserve"
   inkscape:version="0.91 r13725"
   sodipodi:docname="instagram.svg"><metadata
     id="metadata43"><rdf:RDF><cc:Work
         rdf:about=""><dc:format>image/svg+xml</dc:format><dc:type
           rdf:resource="http://purl.org/dc/dcmitype/StillImage" /></cc:Work></rdf:RDF></metadata><defs
     id="defs41" /><sodipodi:namedview
     pagecolor="#ffffff"
     bordercolor="#666666"
     borderopacity="1"
     objecttolerance="10"
     gridtolerance="10"
     guidetolerance="10"
     inkscape:pageopacity="0"
     inkscape:pageshadow="2"
     inkscape:window-width="1920"
     inkscape:window-height="1017"
     id="namedview39"
     showgrid="false"
     inkscape:zoom="0.51784936"
     inkscape:cx="227.86549"
     inkscape:cy="227.86549"
     inkscape:window-x="-8"
     inkscape:window-y="-8"
     inkscape:window-maximized="1"
     inkscape:current-layer="g3" /><g
     id="g3"><rect
       x="0"
       y="0"
       style="fill:#d45009;fill-opacity:1"
       width="455.731"
       height="455.731"
       id="rect5" /><path
       style="fill:#FFFFFF;"
       d="M368.866,117.234v221.263c0,14.906-12.086,26.991-26.991,26.991H113.857   c-14.906,0-26.991-12.086-26.991-26.991V117.234c0-14.906,12.086-26.991,26.991-26.991h228.017   C356.78,90.242,368.866,102.328,368.866,117.234z M336.672,164.096V134c0-6.304-5.107-11.41-11.41-11.41h-30.096   c-6.304,0-11.41,5.107-11.41,11.41v30.096c0,6.304,5.107,11.422,11.41,11.422h30.096   C331.566,175.518,336.672,170.399,336.672,164.096z M336.483,322.087V207.9h-24.231c1.517,6.41,2.311,13.093,2.311,19.965   c0,47.881-38.816,86.697-86.697,86.697s-86.697-38.816-86.697-86.697c0-6.872,0.794-13.555,2.311-19.965h-24.231v114.186   c0,6.304,5.119,11.41,11.422,11.41h194.39C331.364,333.497,336.483,328.39,336.483,322.087z M281.386,227.866   c0-29.551-23.97-53.521-53.521-53.521s-53.521,23.97-53.521,53.521s23.97,53.521,53.521,53.521S281.386,257.416,281.386,227.866z"
       id="path7" /></g><g
     id="g9" /><g
     id="g11" /><g
     id="g13" /><g
     id="g15" /><g
     id="g17" /><g
     id="g19" /><g
     id="g21" /><g
     id="g23" /><g
     id="g25" /><g
     id="g27" /><g
     id="g29" /><g
     id="g31" /><g
     id="g33" /><g
     id="g35" /><g
     id="g37" /></svg>