<?xml version="1.0" encoding="UTF-8" standalone="no"?>
<!-- Generator: Adobe Illustrator 18.0.0, SVG Export Plug-In . SVG Version: 6.00 Build 0)  -->

<svg
   xmlns:dc="http://purl.org/dc/elements/1.1/"
   xmlns:cc="http://creativecommons.org/ns#"
   xmlns:rdf="http://www.w3.org/1999/02/22-rdf-syntax-ns#"
   xmlns:svg="http://www.w3.org/2000/svg"
   xmlns="http://www.w3.org/2000/svg"
   xmlns:sodipodi="http://sodipodi.sourceforge.net/DTD/sodipodi-0.dtd"
   xmlns:inkscape="http://www.inkscape.org/namespaces/inkscape"
   version="1.1"
   id="Capa_1"
   x="0px"
   y="0px"
   viewBox="0 0 455.731 455.731"
   style="enable-background:new 0 0 455.731 455.731;"
   xml:space="preserve"
   inkscape:version="0.91 r13725"
   sodipodi:docname="linkedin.svg"><metadata
     id="metadata49"><rdf:RDF><cc:Work
         rdf:about=""><dc:format>image/svg+xml</dc:format><dc:type
           rdf:resource="http://purl.org/dc/dcmitype/StillImage" /></cc:Work></rdf:RDF></metadata><defs
     id="defs47" /><sodipodi:namedview
     pagecolor="#ffffff"
     bordercolor="#666666"
     borderopacity="1"
     objecttolerance="10"
     gridtolerance="10"
     guidetolerance="10"
     inkscape:pageopacity="0"
     inkscape:pageshadow="2"
     inkscape:window-width="1920"
     inkscape:window-height="1017"
     id="namedview45"
     showgrid="false"
     inkscape:zoom="0.51784936"
     inkscape:cx="227.86549"
     inkscape:cy="227.86549"
     inkscape:window-x="-8"
     inkscape:window-y="-8"
     inkscape:window-maximized="1"
     inkscape:current-layer="g3" /><g
     id="g3"><rect
       x="0"
       y="0"
       style="fill:#d45009;fill-opacity:1"
       width="455.731"
       height="455.731"
       id="rect5" /><g
       id="g7"><path
         style="fill:#FFFFFF;"
         d="M107.255,69.215c20.873,0.017,38.088,17.257,38.043,38.234c-0.05,21.965-18.278,38.52-38.3,38.043    c-20.308,0.411-38.155-16.551-38.151-38.188C68.847,86.319,86.129,69.199,107.255,69.215z"
         id="path9" /><path
         style="fill:#FFFFFF;"
         d="M129.431,386.471H84.71c-5.804,0-10.509-4.705-10.509-10.509V185.18    c0-5.804,4.705-10.509,10.509-10.509h44.721c5.804,0,10.509,4.705,10.509,10.509v190.783    C139.939,381.766,135.235,386.471,129.431,386.471z"
         id="path11" /><path
         style="fill:#FFFFFF;"
         d="M386.884,241.682c0-39.996-32.423-72.42-72.42-72.42h-11.47c-21.882,0-41.214,10.918-52.842,27.606    c-1.268,1.819-2.442,3.708-3.52,5.658c-0.373-0.056-0.594-0.085-0.599-0.075v-23.418c0-2.409-1.953-4.363-4.363-4.363h-55.795    c-2.409,0-4.363,1.953-4.363,4.363V382.11c0,2.409,1.952,4.362,4.361,4.363l57.011,0.014c2.41,0.001,4.364-1.953,4.364-4.363    V264.801c0-20.28,16.175-37.119,36.454-37.348c10.352-0.117,19.737,4.031,26.501,10.799c6.675,6.671,10.802,15.895,10.802,26.079    v117.808c0,2.409,1.953,4.362,4.361,4.363l57.152,0.014c2.41,0.001,4.364-1.953,4.364-4.363V241.682z"
         id="path13" /></g></g><g
     id="g15" /><g
     id="g17" /><g
     id="g19" /><g
     id="g21" /><g
     id="g23" /><g
     id="g25" /><g
     id="g27" /><g
     id="g29" /><g
     id="g31" /><g
     id="g33" /><g
     id="g35" /><g
     id="g37" /><g
     id="g39" /><g
     id="g41" /><g
     id="g43" /></svg>